# xmcd CD database file
#
# Track frame offsets:
#	150
#	16180
#	35555
#	51145
#	61825
#	77642
#	94272
#	114032
#	131252
#	147780
#	168822
#	186592
#
# Disc length: 2744 seconds
#
# Revision: 1
# Processed by: cddbd v1.5.1PL0 Copyright (c) Steve Scherf et al.
# Submitted via: CDex 1.50Beta7
#
DISCID=910ab60c
DTITLE=Varios - Lom Mejor de New Age
DYEAR=2002
DGENRE=New Age
TTITLE0=Behind the waterfall - David Lanz
TTITLE1=Chariots of fire - Vangelis
TTITLE2=Desert rain - David Lanz
TTITLE3=Serenissima - G. P. reverberi
TTITLE4=The mermaid - Yanni
TTITLE5=Song of ocarina - P.sanneville
TTITLE6=Rain forest - David Lanz
TTITLE7=Rondo Veneciano - G.P Reverberi
TTITLE8=Classical gas - M. Williams
TTITLE9=For the Americas - S. Kindier
TTITLE10=Hotel Luna - S. Cianni
TTITLE11=Water of Cesme - M. Holm
EXTD=YEAR: 2002
EXTT0=
EXTT1=
EXTT2=
EXTT3=
EXTT4=
EXTT5=
EXTT6=
EXTT7=
EXTT8=
EXTT9=
EXTT10=
EXTT11=
PLAYORDER=
